<svg width="48" height="48" viewBox="0 0 48 48" fill="none" xmlns="http://www.w3.org/2000/svg">
    <path d="M36.5 16.5C39.5376 18.8962 43 20 43 20V14C40.2386 14 38 11.7614 38 9H32.5C32.5 19 32.5 29.5 32.5 29.5C32.5 32.5376 30.0376 35 27 35C23.9624 35 21.5 32.5376 21.5 29.5C21.5 26.4624 23.9624 24 27 24V18.5C20.6487 18.5 15.5 23.6487 15.5 30C15.5 36.3513 20.6487 41.5 27 41.5C33.3513 41.5 38.5 36.3513 38.5 30V20.5" stroke="black" stroke-width="2" stroke-linecap="round" stroke-linejoin="round"/>
</svg> 