<svg width="24" height="24" viewBox="0 0 24 24" fill="none" xmlns="http://www.w3.org/2000/svg">
    <path d="M8.2 4C4.6 4.6 2 7.4 2 10.7C2 12.6 2.8 14.3 4.2 15.5L3.5 17.8L6 16.8C7 17.2 8.1 17.4 9.2 17.4C9.4 17.4 9.6 17.4 9.7 17.4C9.5 16.8 9.4 16.2 9.4 15.6C9.4 11.9 12.4 8.9 16.1 8.9C16.4 8.9 16.7 8.9 17 9C16.2 6.1 12.6 3.8 8.2 4Z" fill="#333333"/>
    <path d="M16.1 10.1C12.9 10.1 10.4 12.6 10.4 15.6C10.4 18.6 12.9 21.1 16.1 21.1C17 21.1 17.8 20.9 18.6 20.5L20.5 21.3L20 19.5C21.1 18.5 21.8 17.1 21.8 15.6C21.8 12.6 19.3 10.1 16.1 10.1ZM14 14.4C13.6 14.4 13.2 14 13.2 13.6C13.2 13.2 13.6 12.8 14 12.8C14.4 12.8 14.8 13.2 14.8 13.6C14.8 14 14.4 14.4 14 14.4ZM18.2 14.4C17.8 14.4 17.4 14 17.4 13.6C17.4 13.2 17.8 12.8 18.2 12.8C18.6 12.8 19 13.2 19 13.6C19 14 18.6 14.4 18.2 14.4Z" fill="#333333"/>
</svg> 